<?xml version="1.0" encoding="iso-8859-1"?>
<!-- Generator: Adobe Illustrator 18.0.0, SVG Export Plug-In . SVG Version: 6.00 Build 0)  -->
<!DOCTYPE svg PUBLIC "-//W3C//DTD SVG 1.1//EN" "http://www.w3.org/Graphics/SVG/1.1/DTD/svg11.dtd">
<svg version="1.1" id="Capa_1" xmlns="http://www.w3.org/2000/svg" xmlns:xlink="http://www.w3.org/1999/xlink" x="0px" y="0px"
	 viewBox="0 0 460.662 460.662" style="enable-background:new 0 0 460.662 460.662;" xml:space="preserve">
<g id="XMLID_171_">
	<path id="XMLID_179_" d="M203.163,439.464c-0.032,11.674,9.405,21.165,21.08,21.198c0.021,0,0.039,0,0.06,0
		c11.646,0,21.105-9.426,21.138-21.08l0.429-154.028c-14.425,2.68-28.792,4.214-42.291,4.503L203.163,439.464z"/>
	<path id="XMLID_178_" d="M302.424,268.843c-12.463,5.244-26.037,9.717-40.232,13.209l26.26,67.078l-10.438,87.897
		c-1.377,11.593,6.905,22.108,18.499,23.485c11.582,1.377,22.107-6.897,23.484-18.498l11.064-93.161
		c0.411-3.456-0.038-6.959-1.307-10.199L302.424,268.843z"/>
	<circle id="XMLID_177_" cx="206.363" cy="36.695" r="36.688"/>
	<path id="XMLID_172_" d="M357.984,137.042c0.644-6.497-2.761-12.724-8.577-15.689l-83.437-42.53
		c-1.531-0.78-3.347-1.362-5.281-1.597c-3.443-0.419-88.925,18.167-90.134,18.414l0.028,0.138c-1.588,0.746-3.084,1.754-4.403,3.058
		l-58.867,58.17c-4.371,4.319-5.853,10.774-3.803,16.567c22.362,63.183,20.598,58.351,21.253,59.679
		c-0.063,2.443,0.168,4.869,0.711,7.267c0.004,0.016,0.009,0.032,0.012,0.049c0.011,0.048,0.025,0.095,0.036,0.144
		c7.912,33.891,69.687,40.313,127.913,27.126c54.035-12.238,111.42-43.815,103.768-79.472c-0.019-0.089-0.033-0.177-0.053-0.265
		c-0.004-0.017-0.006-0.033-0.01-0.049c-0.679-2.999-1.809-5.83-3.37-8.481C354.583,171.372,354.435,172.86,357.984,137.042z
		 M325.363,144.687l-1.458,14.713c-14.262-4.272-30.645-5.42-45.585-5.032l-7.712-37.591L325.363,144.687z M177.939,131.791
		l8.666,42.422c-14.175,5.941-29.053,13.903-40.811,23.797l-9.035-25.526L177.939,131.791z M248.949,247.176
		c-22.917,5.2-50.321,8.062-73.586,4.162c-8.292-1.391-22.689-5.168-27.551-11.975c5.584-3.756,8.813-10.756,5.681-19.606
		c6.367-6.828,18.082-15.805,37.432-24.405l8.562,41.911c14.318-0.019,29.717-1.869,45.778-5.506
		c19.866-4.499,34.916-10.404,45.705-15.734l-8.328-40.594c12.693-0.07,27.321,1.175,39.128,5.526l-1.016,10.25
		c-0.702,7.085,3.375,13.542,9.607,16.172c0.01,0.004,0.021,0.007,0.031,0.012C312.967,227.55,275.373,241.172,248.949,247.176z"/>
</g>
<g>
</g>
<g>
</g>
<g>
</g>
<g>
</g>
<g>
</g>
<g>
</g>
<g>
</g>
<g>
</g>
<g>
</g>
<g>
</g>
<g>
</g>
<g>
</g>
<g>
</g>
<g>
</g>
<g>
</g>
</svg>
